<svg xmlns="http://www.w3.org/2000/svg" width="1200" height="330" viewBox="0 0 1200 330" role="img"><defs><marker id="arrow" viewBox="0 0 10 10" refX="9" refY="5" markerWidth="7" markerHeight="7" orient="auto-start-reverse"><path d="M 0 0 L 10 5 L 0 10 z" fill="#0f766e"/></marker></defs><rect width="1200" height="330" rx="18" fill="#f0fdfa"/><text x="48" y="58" font-family="Arial" font-size="27" font-weight="700" fill="#134e4a">Quy trình training — DCNET CRM</text><text x="48" y="88" font-family="Arial" font-size="15" fill="#475569">Thực hiện từ trái sang phải; dừng và xác nhận khi dữ liệu hoặc quyền chưa đúng.</text><line x1="213.66666666666666" y1="176" x2="227.66666666666666" y2="176" stroke="#0f766e" stroke-width="4" marker-end="url(#arrow)"/><rect x="48" y="125" width="165.66666666666666" height="102" rx="14" fill="#ffffff" stroke="#0f766e" stroke-width="2"/><circle cx="76" cy="148" r="16" fill="#0f766e"/><text x="76" y="154" text-anchor="middle" font-family="Arial" font-size="14" font-weight="700" fill="#fff">1</text><text x="130.83333333333331" y="184" text-anchor="middle" font-family="Arial" font-size="15" font-weight="700" fill="#164e63">Tiềm năng</text><line x1="401.3333333333333" y1="176" x2="415.3333333333333" y2="176" stroke="#0f766e" stroke-width="4" marker-end="url(#arrow)"/><rect x="235.66666666666666" y="125" width="165.66666666666666" height="102" rx="14" fill="#ffffff" stroke="#0f766e" stroke-width="2"/><circle cx="263.66666666666663" cy="148" r="16" fill="#0f766e"/><text x="263.66666666666663" y="154" text-anchor="middle" font-family="Arial" font-size="14" font-weight="700" fill="#fff">2</text><text x="318.5" y="184" text-anchor="middle" font-family="Arial" font-size="15" font-weight="700" fill="#164e63">Hoạt động</text><line x1="589" y1="176" x2="603" y2="176" stroke="#0f766e" stroke-width="4" marker-end="url(#arrow)"/><rect x="423.3333333333333" y="125" width="165.66666666666666" height="102" rx="14" fill="#ffffff" stroke="#0f766e" stroke-width="2"/><circle cx="451.3333333333333" cy="148" r="16" fill="#0f766e"/><text x="451.3333333333333" y="154" text-anchor="middle" font-family="Arial" font-size="14" font-weight="700" fill="#fff">3</text><text x="506.16666666666663" y="184" text-anchor="middle" font-family="Arial" font-size="15" font-weight="700" fill="#164e63">Cơ hội</text><line x1="776.6666666666666" y1="176" x2="790.6666666666666" y2="176" stroke="#0f766e" stroke-width="4" marker-end="url(#arrow)"/><rect x="611" y="125" width="165.66666666666666" height="102" rx="14" fill="#ffffff" stroke="#0f766e" stroke-width="2"/><circle cx="639" cy="148" r="16" fill="#0f766e"/><text x="639" y="154" text-anchor="middle" font-family="Arial" font-size="14" font-weight="700" fill="#fff">4</text><text x="693.8333333333334" y="184" text-anchor="middle" font-family="Arial" font-size="15" font-weight="700" fill="#164e63">Báo giá</text><line x1="964.3333333333333" y1="176" x2="978.3333333333333" y2="176" stroke="#0f766e" stroke-width="4" marker-end="url(#arrow)"/><rect x="798.6666666666666" y="125" width="165.66666666666666" height="102" rx="14" fill="#ffffff" stroke="#0f766e" stroke-width="2"/><circle cx="826.6666666666666" cy="148" r="16" fill="#0f766e"/><text x="826.6666666666666" y="154" text-anchor="middle" font-family="Arial" font-size="14" font-weight="700" fill="#fff">5</text><text x="881.5" y="184" text-anchor="middle" font-family="Arial" font-size="15" font-weight="700" fill="#164e63">Đơn hàng</text><rect x="986.3333333333333" y="125" width="165.66666666666666" height="102" rx="14" fill="#ccfbf1" stroke="#0f766e" stroke-width="2"/><circle cx="1014.3333333333333" cy="148" r="16" fill="#0f766e"/><text x="1014.3333333333333" y="154" text-anchor="middle" font-family="Arial" font-size="14" font-weight="700" fill="#fff">6</text><text x="1069.1666666666665" y="184" text-anchor="middle" font-family="Arial" font-size="15" font-weight="700" fill="#164e63">Chăm sóc</text><text x="48" y="290" font-family="Arial" font-size="13" fill="#64748b">Sơ đồ minh họa được sinh từ tài liệu training DCNET Flow.</text></svg>